<!-- icon666.com - MILLIONS vector ICONS FREE --><svg id="Icons" viewBox="0 0 60 60" xmlns="http://www.w3.org/2000/svg"><path d="m28.273 15.391a.5.5 0 0 1 -.32-.884l3.8-3.167-6.123 3.535a.5.5 0 0 1 -.538-.842l.077-.054-.808.466a.5.5 0 0 1 -.563-.822l2.41-1.939-2.928 1.687a.5.5 0 0 1 -.565-.82l1.194-.972-.629.362a.5.5 0 0 1 -.634-.752l1.109-1.339-.475.274a.5.5 0 0 1 -.728-.577l.238-.79a.5.5 0 0 1 -.01-.872l.5-.289a.5.5 0 0 1 .729.578l-.137.453 1.794-1.036a.5.5 0 0 1 .635.752l-1.111 1.34 3.636-2.1a.5.5 0 0 1 .566.82l-1.2.973 3.115-1.8a.5.5 0 0 1 .564.822l-2.409 1.94 4.795-2.769a.5.5 0 0 1 .538.842l-.077.054 1.558-.9a.5.5 0 0 1 .571.817l-3.8 3.166 3.664-2.115a.5.5 0 0 1 .6.791l-2.282 2.218 1.685-.971a.5.5 0 0 1 .622.765l-.4.447a.5.5 0 0 1 .17.925l-2.126 1.236a.5.5 0 0 1 -.622-.766l.157-.176-2.453 1.416a.5.5 0 0 1 -.6-.791l2.281-2.217-5.221 3.013a.493.493 0 0 1 -.249.068z" fill="#366182" style="fill: rgb(201, 175, 92);"></path><path d="m29.156 10.431a.5.5 0 0 1 -.295-.9l.324-.237-1.627.939a.5.5 0 0 1 -.558-.833l2.965-2.3-4.65 2.683a.5.5 0 0 1 -.585-.8l3.514-3.168-4.857 2.804a.5.5 0 0 1 -.568-.818l1.616-1.33-1.155.666a.5.5 0 0 1 -.586-.8l.6-.543-.014.006a.5.5 0 0 1 -.739-.538l.316-1.472a.5.5 0 0 1 -.077-.9l.5-.289a.5.5 0 0 1 .739.539l-.265 1.234 3.084-1.78a.5.5 0 0 1 .586.8l-.6.543 2.341-1.351a.5.5 0 0 1 .567.818l-1.61 1.327 3.73-2.153a.5.5 0 0 1 .585.8l-3.514 3.172 6.9-3.981a.5.5 0 0 1 .557.828l-2.968 2.303 3.309-1.91a.5.5 0 0 1 .545.836l-.432.317a.5.5 0 0 1 .527.166.5.5 0 0 1 -.019.651l-1.778 1.95 1.16-.669a.5.5 0 0 1 .5.865l-3.946 2.274a.5.5 0 0 1 -.62-.77l1.778-1.95-5.03 2.9a.493.493 0 0 1 -.25.071z" fill="#40739f"></path><path d="m30.062 5.467a.5.5 0 0 1 -.375-.831l1.213-1.378-3.4 1.964a.5.5 0 0 1 -.663-.715l1.323-1.94-3.512 2.033a.5.5 0 0 1 -.723-.6l.446-1.32-.984.567a.5.5 0 1 1 -.5-.865l2.132-1.231a.5.5 0 0 1 .723.593l-.442 1.324 4.262-2.463a.5.5 0 0 1 .663.715l-1.325 1.94 4.156-2.4a.5.5 0 0 1 .625.764l-1.218 1.376 2.811-1.622a.5.5 0 0 1 .6.788l-.295.293.812-.469a.5.5 0 0 1 .5.865l-4.16 2.4a.5.5 0 0 1 -.6-.788l.3-.3-2.119 1.233a.5.5 0 0 1 -.25.067z" fill="#628db2"></path><path d="m30.7 37.438a.5.5 0 0 1 -.319-.885l1.7-1.407-3.756 2.167a.5.5 0 0 1 -.573-.814l3.875-3.282-6.227 3.594a.5.5 0 0 1 -.564-.822l2.93-2.372-4.155 2.4a.5.5 0 0 1 -.586-.8l2.666-2.417-2.411 1.393a.5.5 0 0 1 -.609-.78l1.133-1.17-.524.3a.5.5 0 0 1 -.736-.55l.293-1.216a.5.5 0 0 1 -.057-.894l.5-.289a.5.5 0 0 1 .737.55l-.23.951 2.613-1.505a.5.5 0 0 1 .61.78l-1.132 1.169 3.388-1.956a.5.5 0 0 1 .586.8l-2.666 2.417 5.582-3.223a.5.5 0 0 1 .564.821l-2.932 2.371 5.543-3.2a.5.5 0 0 1 .574.815l-3.875 3.282 4.077-2.353a.5.5 0 0 1 .569.817l-1.7 1.407 1.131-.652a.5.5 0 0 1 .626.762l-.87.991.245-.141a.5.5 0 0 1 .5.865l-2.867 1.658a.5.5 0 0 1 -.626-.763l.869-.99-3.644 2.1a.493.493 0 0 1 -.252.071z" fill="#366182" style="fill: rgb(201, 175, 92);"></path><path d="m28.194 32.387a.5.5 0 0 1 -.307-.895l3.128-2.442-5.058 2.92a.5.5 0 0 1 -.553-.831l2.296-1.739-3.444 1.989a.5.5 0 0 1 -.558-.827l1.96-1.531-2.378 1.369a.5.5 0 0 1 -.6-.79l2.22-2.169-1.62.935a.5.5 0 0 1 -.608-.781l.424-.436a.494.494 0 0 1 -.377-.1.5.5 0 0 1 -.166-.538l.233-.762a.506.506 0 0 1 -.189-.187.5.5 0 0 1 .183-.683l.5-.289a.5.5 0 0 1 .562.043.5.5 0 0 1 .166.537l-.128.418 1.736-1a.5.5 0 0 1 .609.781l-.331.34 1.95-1.125a.5.5 0 0 1 .6.79l-2.218 2.167 5.135-2.965a.5.5 0 0 1 .558.827l-1.963 1.532 4.1-2.365a.5.5 0 0 1 .552.831l-2.288 1.738 4.4-2.54a.5.5 0 0 1 .557.827l-3.13 2.444 2.575-1.486a.5.5 0 0 1 .606.783l-2.393 2.423 1.788-1.033a.5.5 0 0 1 .5.866l-4.982 2.876a.5.5 0 0 1 -.606-.784l2.394-2.425-5.585 3.223a.493.493 0 0 1 -.25.064z" fill="#40739f"></path><path d="m29.446 27.444a.5.5 0 0 1 -.408-.789l1.383-1.949-4.065 2.346a.5.5 0 0 1 -.632-.755l1.151-1.366-2.575 1.485a.5.5 0 0 1 -.7-.659l.455-.9-.674.389a.5.5 0 1 1 -.5-.865l2.132-1.231a.494.494 0 0 1 .593.07.5.5 0 0 1 .1.589l-.454.894 3.586-2.069a.5.5 0 0 1 .633.755l-1.145 1.371 3.574-2.06a.5.5 0 0 1 .659.722l-1.383 1.949 3.658-2.111a.5.5 0 0 1 .589.8l-.172.159.778-.449a.5.5 0 0 1 .659.719l-.256.368.181-.105a.5.5 0 1 1 .5.865l-2.134 1.232a.5.5 0 0 1 -.659-.72l.256-.366-2.719 1.569a.5.5 0 0 1 -.588-.8l.171-.159-1.74 1.004a.489.489 0 0 1 -.254.067z" fill="#628db2"></path><path d="m30.369 59.453a.5.5 0 0 1 -.331-.875l2.876-2.543-5.5 3.173a.5.5 0 0 1 -.557-.827l2.962-2.3-4.629 2.672a.5.5 0 0 1 -.549-.833l1.727-1.294-2.6 1.5a.5.5 0 0 1 -.594-.8l2.926-2.772-2.82 1.626a.5.5 0 0 1 -.59-.8l.749-.693-.159.091a.5.5 0 0 1 -.738-.538l.314-1.453a.5.5 0 0 1 -.076-.9l.5-.289a.5.5 0 0 1 .739.539l-.263 1.213 3.047-1.759a.5.5 0 0 1 .59.8l-.75.694 2.6-1.5a.5.5 0 0 1 .595.8l-2.922 2.777 6.2-3.58a.5.5 0 0 1 .55.833l-1.729 1.3 3.7-2.134a.5.5 0 0 1 .556.827l-2.962 2.3 3.492-2.015a.5.5 0 0 1 .581.807l-2.876 2.542 2.3-1.325a.5.5 0 0 1 .609.78l-.928.957.32-.183a.5.5 0 0 1 .5.865l-3.424 1.964a.5.5 0 0 1 -.61-.781l.929-.959-3.505 2.024a.489.489 0 0 1 -.25.069z" fill="#366182" style="fill: rgb(201, 175, 92);"></path><path d="m31.212 54.414a.5.5 0 0 1 -.34-.867l2.479-2.291-5.279 3.044a.5.5 0 0 1 -.543-.838l1.166-.841-2.447 1.412a.5.5 0 0 1 -.561-.825l2.964-2.343-4.382 2.535a.5.5 0 0 1 -.577-.811l2.88-2.481-3.292 1.892a.5.5 0 0 1 -.609-.78l1.919-1.981-1.31.761a.5.5 0 0 1 -.74-.529l.331-1.677a.5.5 0 0 1 -.091-.908l.5-.289a.5.5 0 0 1 .74.53l-.288 1.456 3.455-1.994a.5.5 0 0 1 .61.78l-1.918 1.98 4.794-2.768a.5.5 0 0 1 .576.812l-2.882 2.483 5.72-3.3a.5.5 0 0 1 .56.825l-2.961 2.341 5.032-2.9a.5.5 0 0 1 .543.838l-1.176.848.635-.366a.5.5 0 0 1 .59.8l-2.477 2.29 1.888-1.09a.5.5 0 0 1 .641.743l-.635.8a.5.5 0 0 1 .387.914l-2.134 1.225a.5.5 0 0 1 -.641-.743l.607-.766-3.484 2.012a.489.489 0 0 1 -.25.067z" fill="#40739f"></path><path d="m30.013 49.47a.5.5 0 0 1 -.391-.813l1.32-1.65-3.755 2.168a.5.5 0 0 1 -.622-.1.5.5 0 0 1 -.031-.63l1.3-1.776-3.275 1.89a.5.5 0 0 1 -.717-.609l.463-1.232-.923.532a.5.5 0 1 1 -.5-.865l2.132-1.231a.5.5 0 0 1 .717.609l-.458 1.237 4.127-2.387a.5.5 0 0 1 .654.729l-1.3 1.776 3.99-2.3a.5.5 0 0 1 .641.746l-1.32 1.649 3.182-1.837a.5.5 0 0 1 .69.671l-.677 1.245 1.418-.818a.5.5 0 0 1 .5.865l-2.954 1.706a.5.5 0 0 1 -.69-.671l.677-1.245-3.948 2.271a.49.49 0 0 1 -.25.07z" fill="#628db2"></path><path d="m8.906 59.428a.5.5 0 0 1 -.328-.877l2.153-1.873-4.554 2.629a.5.5 0 0 1 -.568-.819l3.677-3.024-5.826 3.363a.5.5 0 0 1 -.56-.827l2.747-2.181-3.933 2.27a.5.5 0 0 1 -.578-.81l2.574-2.239-2.429 1.4a.5.5 0 0 1 -.6-.788l1.272-1.252-.673.388a.5.5 0 0 1 -.738-.538l.315-1.461a.5.5 0 0 1 -.077-.9l.5-.289a.5.5 0 0 1 .739.539l-.264 1.221 3.062-1.767a.5.5 0 0 1 .6.788l-1.269 1.254 3.552-2.053a.5.5 0 0 1 .578.81l-2.578 2.242 5.3-3.059a.5.5 0 0 1 .56.824l-2.744 2.18 5.215-3.011a.5.5 0 0 1 .568.819l-3.679 3.026 3.8-2.193a.5.5 0 0 1 .578.809l-2.152 1.871 1.577-.91a.5.5 0 0 1 .649.733l-.772 1.03.016-.01a.5.5 0 1 1 .5.865l-2.136 1.236a.5.5 0 0 1 -.649-.733l.773-1.029-3.948 2.278a.493.493 0 0 1 -.25.068z" fill="#366182" style="fill: rgb(201, 175, 92);"></path><path d="m8.5 54.447a.5.5 0 0 1 -.32-.884l2.029-1.7-4.204 2.437a.5.5 0 0 1 -.55-.833l2.476-1.856-4.054 2.34a.5.5 0 0 1 -.562-.824l2.928-2.331-4.251 2.449a.5.5 0 0 1 -.583-.806l2.862-2.548-2.991 1.726a.5.5 0 0 1 -.635-.751l1.671-2.024-1.036.6a.5.5 0 0 1 -.734-.555l.281-1.109a.5.5 0 0 1 -.047-.89l.5-.289a.5.5 0 0 1 .735.556l-.21.829 2.41-1.391a.5.5 0 0 1 .636.751l-1.67 2.021 4.819-2.783a.5.5 0 0 1 .583.806l-2.862 2.55 5.825-3.364a.5.5 0 0 1 .561.824l-2.925 2.331 5.477-3.162a.5.5 0 0 1 .55.833l-2.478 1.858 1.99-1.149a.5.5 0 0 1 .57.817l-2.027 1.693 1.459-.842a.5.5 0 0 1 .659.72l-.948 1.354.182-.1a.5.5 0 1 1 .5.865l-2.136 1.228a.5.5 0 0 1 -.659-.72l.948-1.353-4.519 2.609a.491.491 0 0 1 -.25.067z" fill="#40739f"></path><path d="m9.409 49.405a.5.5 0 0 1 -.409-.787l1.176-1.675-4.088 2.357a.5.5 0 0 1 -.592-.8l.841-.788-2.237 1.298a.5.5 0 0 1 -.658-.723l1.138-1.6-2.645 1.528a.5.5 0 0 1 -.656-.726l.218-.3-.11.063a.5.5 0 1 1 -.5-.865l2.132-1.231a.5.5 0 0 1 .655.726l-.218.3 2.612-1.508a.5.5 0 0 1 .658.722l-1.138 1.604 4.006-2.312a.5.5 0 0 1 .592.8l-.84.788 2.289-1.322a.5.5 0 0 1 .659.72l-1.176 1.675 2.819-1.627a.494.494 0 0 1 .611.088.5.5 0 0 1 .059.615l-.342.533.35-.2a.5.5 0 1 1 .5.865l-2.134 1.232a.5.5 0 0 1 -.67-.7l.341-.533-2.993 1.716a.489.489 0 0 1 -.25.067z" fill="#628db2"></path><path d="m51.916 37.466a.5.5 0 0 1 -.3-.9l.368-.276-1.765 1.02a.5.5 0 0 1 -.565-.822l3.533-2.853-5.6 3.23a.5.5 0 0 1 -.579-.808l3.5-3.068-4.985 2.877a.5.5 0 0 1 -.561-.824l1.564-1.242-1.246.719a.5.5 0 0 1 -.617-.772l1.521-1.647-.9.521a.5.5 0 0 1 -.737-.546l.3-1.292a.493.493 0 0 1 -.247-.214.5.5 0 0 1 .183-.683l.5-.289a.5.5 0 0 1 .738.547l-.242 1.035 2.753-1.589a.5.5 0 0 1 .617.771l-1.521 1.65 4.2-2.428a.5.5 0 0 1 .562.824l-1.559 1.24 3.587-2.07a.5.5 0 0 1 .579.809l-3.5 3.068 6.731-3.885a.5.5 0 0 1 .564.822l-3.532 2.853 3.462-2a.5.5 0 0 1 .549.833l-.449.337a.5.5 0 0 1 .477.855l-.544.467a.5.5 0 0 1 .469.883l-4.6 2.655a.5.5 0 0 1 -.576-.811l.54-.464-2.422 1.4a.493.493 0 0 1 -.25.067z" fill="#366182" style="fill: rgb(201, 175, 92);"></path><path d="m51.093 32.428a.5.5 0 0 1 -.3-.9l.686-.506-2.061 1.19a.5.5 0 0 1 -.56-.825l3.16-2.492-4.913 2.835a.5.5 0 0 1 -.556-.828l2.357-1.835-3.316 1.915a.5.5 0 0 1 -.587-.8l2.657-2.427-2.38 1.37a.5.5 0 0 1 -.653-.137.5.5 0 0 1 .065-.665l.632-.578-.044.026a.5.5 0 0 1 -.738-.54l.313-1.444a.5.5 0 0 1 -.075-.9l.5-.289a.5.5 0 0 1 .739.54l-.262 1.2 3.033-1.751a.5.5 0 0 1 .588.8l-.633.578 2.4-1.385a.5.5 0 0 1 .587.8l-2.656 2.427 5.606-3.237a.5.5 0 0 1 .556.827l-2.36 1.838 4.627-2.671a.5.5 0 0 1 .559.826l-3.156 2.49 3.812-2.2a.5.5 0 0 1 .547.835l-.689.507.143-.082a.5.5 0 0 1 .57.817l-.951.793.382-.22a.5.5 0 0 1 .631.756l-.5.587a.557.557 0 0 1 .443.25.5.5 0 0 1 -.183.682l-2.133 1.239a.5.5 0 0 1 -.63-.756l.377-.445-2.927 1.688a.5.5 0 0 1 -.571-.816l.953-.794-2.839 1.639a.493.493 0 0 1 -.25.068z" fill="#40739f"></path><path d="m51.142 27.431a.5.5 0 0 1 -.37-.837l1.246-1.365-3.262 1.882a.5.5 0 0 1 -.645-.739l1.243-1.6-2.947 1.7a.5.5 0 0 1 -.7-.639l.469-1.036-.784.452a.5.5 0 1 1 -.5-.865l2.132-1.231a.5.5 0 0 1 .7.639l-.469 1.036 3.812-2.2a.5.5 0 0 1 .645.739l-1.243 1.6 3.841-2.217a.5.5 0 0 1 .619.77l-1.245 1.365 2.931-1.693a.5.5 0 0 1 .593.8l-.365.345 1.084-.625a.5.5 0 0 1 .672.7l-.35.549.366-.211a.5.5 0 1 1 .5.865l-2.134 1.232a.5.5 0 0 1 -.671-.7l.348-.548-3.018 1.74a.5.5 0 0 1 -.593-.8l.366-.347-2.021 1.167a.493.493 0 0 1 -.25.072z" fill="#628db2"></path><g fill="#262626"><path d="m59.719 24.893c0-.011-.006-.017-.006-.027s.016-.039.01-.059c-.513-2-4.354-2.245-6.992-2.2.048-1.774.445-3.376-1.457-4.049-1.719-.607-4.86 0-6.634 0h-10.393c-3.061 0-3.486-.224-3.517-3.225.368-.025.708-.053.992-.077 2.386-.2 5.943-.458 6-3.356.062-2.992 0-5.992 0-8.985 0-.006 0-.009 0-.014v-.1c0-.009-.008-.017-.01-.026a.2.2 0 0 0 -.023-.054c-.768-2.472-6.723-2.21-8.539-2.128-1.223.055-6.892.262-6.875 2.546 0 .014.005.027.006.041s0 .009 0 .014c0 3.028-.1 6.072 0 9.1.089 2.821 3.982 3.2 6.992 3.117-.051 1.766-.438 3.358 1.457 4.029 1.719.607 4.86 0 6.634 0h10.389c3.063 0 3.487.224 3.517 3.23l-.5.03c-1.118.073-6.175.35-6.464 2.286a.31.31 0 0 0 -.032.1c0 3.029-.082 6.07 0 9.1.1 3.648 5.81 3.344 8.489 3.246 2.511-.092 6.864-.212 6.965-3.406.1-3.026 0-6.07 0-9.1-.001-.017-.008-.026-.009-.033zm-36-20.156c2.944 1.336 9.581 1.268 12.557-.307v3.69c-.635 2.319-11.853 2.405-12.552-.314zm.47-1.977c.516-2.16 11.267-2 12.058.374-.559 1.782-5.658 1.467-7.01 1.412a16.309 16.309 0 0 1 -3.005-.363c-1.032-.239-2.304-.309-2.038-1.423zm3.313 11.714c-1.505-.21-3.369-.41-3.783-2.011a10.291 10.291 0 0 1 -.02-2.815c2.177.985 6.129.743 7.527.652a15.2 15.2 0 0 0 5.045-.917v.184a12.845 12.845 0 0 1 0 3.284c-.506 1.617-3.222 1.932-5.608 1.88-.171-.243-.687-.213-1.043-.042-.855-.055-1.61-.144-2.113-.215zm18.22 12.2c2.938 1.276 9.571 1.24 12.546-.3v3.743c-.644 2.3-11.832 2.391-12.546-.309zm1-2.126c.884-1.132 2.806-1.341 4.6-1.289.164.247.674.223 1.033.056.622.048 1.2.114 1.667.166 1.07.118 3.829.325 4.23 1.671-.6 1.965-6.3 1.547-7.826 1.414a12.574 12.574 0 0 1 -3.132-.574c-1.181-.438-1.476-.274-.564-1.442zm11.551 10.189c-.552 2.041-4.905 1.838-6.518 1.807s-5.4.025-6.028-1.874a10.649 10.649 0 0 1 0-3.011c2.18.981 6.112.742 7.512.652a15.124 15.124 0 0 0 5.039-.916v.058a14.2 14.2 0 0 1 -.005 3.284z" fill="#262626"></path><path d="m28.782 44.749c-1.118.072-6.48.385-6.5 2.41v.02s-.007.01-.007.015c0 3.028-.1 6.072 0 9.1.116 3.684 6.85 3.123 9.425 2.891 2.322-.209 5.93-.454 6.023-3.279.1-3.026 0-6.07 0-9.1-.66-2.574-7.037-2.181-8.941-2.057zm7.483 7.3c-.57 2.217-11.935 2.113-12.541-.244v-3.172c2.937 1.24 9.58 1.23 12.552-.287v3.684c-.003.007-.009.012-.011.02zm-11.247-5.583c1.93-1.6 4.961-1.293 7.369-.965 1.062.145 3.508.358 3.877 1.669-.6 1.95-6.357 1.564-7.819 1.439a12.551 12.551 0 0 1 -3.135-.585c-1.323-.502-1.651-.433-.292-1.558zm11.258 10.385c-.718 2.574-6.955 1.969-9.058 1.628-1.372-.222-3.125-.462-3.494-1.923a11.112 11.112 0 0 1 -.012-2.831c1.974.957 5.354.843 6.746.813 1.357-.029 4.094-.064 5.818-.956a13.644 13.644 0 0 1 0 3.269z" fill="#262626"></path><path d="m15.722 46.9c0-.014-.007-.021-.006-.034s.014-.038.008-.058c-.513-2-4.375-2.256-7.008-2.214-.042-.892-.292-2.88.172-3.252.379-.3 2.62 0 3.1 0h11.27c1.714 0 4.17.5 5.817-.06 1.993-.672 1.725-2.127 1.661-3.934.366-.026.7-.053.989-.077 2.393-.2 5.941-.459 6-3.365.06-2.982 0-5.97 0-8.953l.006-.016a.268.268 0 0 0 -.055-.254c-1.222-3.395-15.51-3.22-15.4.449 0 .017.008.031.01.048s-.006.01-.006.016c0 3.028-.1 6.072 0 9.1.089 2.838 3.994 3.207 7.008 3.125.044.9.29 2.872-.172 3.243-.379.3-2.62 0-3.1 0h-11.274c-1.714 0-4.17-.5-5.817.06-1.99.671-1.726 2.122-1.661 3.925l-.5.029c-1.111.071-5.983.331-6.44 2.187a.412.412 0 0 0 -.056.2c0 3.029-.085 6.071 0 9.1.1 3.479 5 3.382 7.669 3.372 2.654-.01 7.688.015 7.8-3.484.1-3.026 0-6.07 0-9.1-.003-.027-.014-.038-.015-.053zm8-20.189c1.96.814 5.308.79 6.2.785 1.393-.008 4.481 0 6.35-.955v3.523l-.006.009c-.6 2.325-11.915 2.189-12.546-.265zm12.521-1.592c-.543 1.675-5.742 1.421-7.02 1.367-1.214-.052-5.063-.138-4.9-1.611.232-2.047 11.071-2.175 11.922.242zm-8.74 11.35c-1.528-.224-3.362-.39-3.781-2a10.046 10.046 0 0 1 -.021-2.787c1.986.935 5.41.815 6.734.785 1.3-.029 4.093-.067 5.839-.948v.054a12.8 12.8 0 0 1 0 3.284c-.5 1.6-3.218 1.923-5.6 1.875a1.007 1.007 0 0 0 -.68-.023c-1.014-.055-1.918-.158-2.489-.242zm-13.239 15.579c-.565 2.2-11.859 2.106-12.53-.22v-3.128c2.939 1.293 9.555 1.253 12.532-.294v3.642zm-11.531-5.488c.94-1.176 2.9-1.325 4.683-1.249a1.026 1.026 0 0 0 .39.016c.665.04 1.294.1 1.816.15 1.108.1 4.2.235 4.636 1.671-.551 1.778-5.583 1.515-7 1.451a14.366 14.366 0 0 1 -3.958-.619c-1.185-.433-1.487-.268-.567-1.42zm11.533 10.153c-.553 1.893-4.491 1.74-6.107 1.741-1.689 0-5.742.117-6.425-1.76a9.638 9.638 0 0 1 -.006-2.958c1.975.952 5.339.84 6.732.81 1.363-.029 4.092-.063 5.814-.956a11.652 11.652 0 0 1 -.008 3.123z" fill="#262626"></path></g></svg>